<svg id="Layer_2" data-name="Layer 2" xmlns="http://www.w3.org/2000/svg" viewBox="0 0 250.98 194.72"><defs><style>.cls-1{fill:#fff;}</style></defs><title>title-amazon</title><path class="cls-1" d="M474.45,42.83s6.91-2.95,5.59,2.23a8.22,8.22,0,0,1-6.3,6h-8.23s-9.24-7.21-8.43-12.49,8.73-20.41,25.49-22.24h62.56v1.12l4.37.2v5.08s-11.78,16.15-3.76,19.5l-.1.91-7.11-.2s-5.69-6.3-5.28-8.33l-.2-10.87H521.88s-3.66,3.15-2.64,3.76h1v8.43s-9.24-.41-13.31,57h8.73s2.84-2.84,4.57-2.44,4.77-.51,2,3.86a17.13,17.13,0,0,1-11.38,4.47H468.66s-6.7-1.32.71-6.6l5.08-2.84s-.3-4.16,17.27-61.85c0,0,2.13-6.6-12.19-2.74,0,0-14.29,2.43-16.45,12.19,0,0,.2,5.48,3.86,5.89Z" transform="translate(-457.03 -16.05)"/><path class="cls-1" d="M545,100.43s-6.32-1-4.74-3.56,7.31-4.54,7.31-4.54S552.7,74.15,556.65,70c0,0,2-21.93,11.66-42.68V23.16H557.64a6.48,6.48,0,0,0-3.49,3s.16,3.41-2.24,0c0,0-2-2.61,6.72-9.8L588.07,16s7.51,3,5.34,5.34c0,0-2.17,25.1-6.13,23.32l-.2,6.92h1.78s29.44-19.76,38.34,3c0,0,13.44,4.54-10.67,38.73,0,0-1.78,3.16,1,3.56s7.11-2.57,8.69-2.37,1.78,3,1.78,3-8.3,5.14-14,5.34-8.5,0-8.5,0l-.59-2-17.39.79s14.6-25.23,12.84-22.13l-4.94,8.69s9.29-12.25,5.93-32c0,0-10.28,2-16.8,5.73,0,0-8.69,30.23-7.11,31.22s5.93.79,5.93.79,2.17,4.74-6.13,6.52Z" transform="translate(-457.03 -16.05)"/><path class="cls-1" d="M635.34,68s38.27-52.38,72.48-3.21a1.42,1.42,0,0,1-1.07,2.14c-1.92.43-13.26,7.91-22.66,6.84l-18.82,9s9.19,22.24,36.77,0c0,0,6.84,1.5,3.63,5.77,0,0-6.63,14.54-50,12.61C655.65,101.15,633,99.65,635.34,68Z" transform="translate(-457.03 -16.05)"/><path class="cls-1" d="M461.54,145.25s5-18.33,38.57-23.3h22.53s41.25,9.55,41.25,31.32c0,0,4.58,18.71-7.26,16.8,0,0-11.08,8-13.75,6.49v5.73s9,7.64,6.62,11.84a10.81,10.81,0,0,1,7.13,2.29s5.73-3.06,5.35-5,3.53.86,3.53.86l-2.68,10.13s.1,5-16.92,8.32c0,0-23.8-2.1-25.52-14,0,0-5.07-18.83-4.21-21.6,0,0-2.48,1.15-5.73-6.12,0,0,1.34-4,4.4-3.92s3.44,2.48,3.44,2.48l12.62.29.1-3.06H529.1s-1.34-1.91,3.73-8.22-1.43-16.92-23.8-24.85c0,0-35.94.67-33.74,13.09,0,0,1.24,9.65,8.41,6.12,0,0,13.86-13.86,21.6-12.62,0,0,14.15.19,16.53,6.5,0,0-.76,5.26-6.21,4.3l-16.06,45.4s-.38,13.38,14.81.57l1.34.1.19,4.68s-4.59,7.65-13,8.22-38-1.15-38-1.15-4.3-3.25.76-6.69c0,0,7.17-1.05,9-2.68l4.49-33.64-12.52-1S458.2,159.92,461.54,145.25Z" transform="translate(-457.03 -16.05)"/><path class="cls-1" d="M663.13,72.53V63.87s5.78-14.25,13.68-13.1,3.47-.07,3.47-.07,4.29,8.86,2.72,10.92S680.47,74.84,663.13,72.53Z" transform="translate(-457.03 -16.05)"/></svg>